<svg width="745" height="794" viewBox="0 0 745 794" fill="red" xmlns="http://www.w3.org/2000/svg">
<path d="M458.638 300.886C401.536 244.212 323.443 208.719 237.601 207.526L238.043 286.147C366.643 288.018 472.016 392.64 474.791 521.26L553.7 521.238C551.847 435.395 515.741 357.56 458.638 300.886Z" fill="black"/>
<path d="M542.011 217.381C463.265 139.227 355.56 90.2666 237.181 88.6214L237.623 166.624C431.015 169.726 589.41 327.154 593.585 520.642L673.091 521.26C670.536 402.88 620.756 295.536 542.011 217.381Z" fill="black"/>
<path d="M375.465 383.883C339.914 348.599 291.266 326.488 237.822 325.745L238.264 400.875C304.027 401.837 357.893 455.353 359.312 521.128L434.641 521.062C433.488 467.617 411.016 419.167 375.465 383.883Z" fill="black"/>
<path d="M160.436 521.279C160.437 500.473 168.696 480.519 183.401 465.8C198.105 451.081 218.051 442.802 238.857 442.781C259.662 442.759 279.625 450.999 294.359 465.688C309.093 480.377 317.393 500.314 317.436 521.12C317.479 541.925 309.26 561.897 294.586 576.646C279.912 591.395 259.983 599.716 239.178 599.78C218.373 599.844 198.393 591.646 183.628 576.988C168.864 562.329 160.522 542.409 160.437 521.604L238.936 521.279L160.436 521.279Z" fill="black"/>
</svg>
